<svg width="205" height="214" viewBox="0 0 205 214" fill="none" xmlns="http://www.w3.org/2000/svg">
<g clip-path="url(#clip0_68_26)">
<path d="M109.125 136.527C108.779 136.826 108.53 137.221 108.409 137.662C108.288 138.103 108.3 138.57 108.443 139.004C108.587 139.438 108.856 139.819 109.217 140.1C109.577 140.38 110.012 140.547 110.468 140.58C110.923 140.612 111.378 140.508 111.775 140.282C112.172 140.055 112.492 139.716 112.697 139.307C112.901 138.898 112.98 138.438 112.923 137.984C112.866 137.53 112.676 137.104 112.377 136.759C111.977 136.296 111.409 136.012 110.8 135.969C110.19 135.925 109.587 136.126 109.125 136.527Z" fill="#01CDC5"/>
<path d="M98.8086 132.34C98.4643 132.639 98.2163 133.034 98.096 133.474C97.9757 133.914 97.9885 134.38 98.1328 134.813C98.277 135.246 98.5463 135.626 98.9065 135.905C99.2667 136.184 99.7016 136.35 100.156 136.381C100.611 136.413 101.064 136.308 101.46 136.081C101.855 135.854 102.175 135.515 102.378 135.106C102.581 134.698 102.658 134.238 102.6 133.785C102.542 133.333 102.352 132.907 102.052 132.564C101.651 132.105 101.085 131.824 100.477 131.782C99.8696 131.74 99.2698 131.941 98.8086 132.34Z" fill="#01CDC5"/>
<path d="M79.789 134.407C79.4435 134.706 79.1943 135.101 79.073 135.542C78.9517 135.983 78.9637 136.45 79.1074 136.884C79.2512 137.318 79.5203 137.699 79.8806 137.979C80.2409 138.26 80.6763 138.427 81.1317 138.459C81.5871 138.492 82.042 138.388 82.4388 138.162C82.8356 137.935 83.1565 137.596 83.361 137.187C83.5654 136.778 83.6441 136.317 83.5872 135.864C83.5303 135.41 83.3403 134.984 83.0412 134.638C82.6407 134.176 82.0733 133.892 81.4636 133.849C80.8538 133.805 80.2515 134.006 79.789 134.407Z" fill="#01CDC5"/>
<path d="M88.3727 127.348C88.0278 127.647 87.7794 128.043 87.6589 128.484C87.5383 128.925 87.5511 129.392 87.6956 129.826C87.8401 130.259 88.1097 130.64 88.4705 130.92C88.8312 131.2 89.2668 131.366 89.7222 131.398C90.1775 131.43 90.6322 131.325 91.0287 131.098C91.4251 130.871 91.7455 130.532 91.9493 130.122C92.1532 129.713 92.2313 129.252 92.1737 128.799C92.1162 128.345 91.9257 127.919 91.6262 127.574C91.225 127.112 90.657 126.829 90.0469 126.787C89.4369 126.744 88.8347 126.946 88.3727 127.348Z" fill="#01CDC5"/>
<path d="M97.0956 120.368C96.7501 120.667 96.501 121.063 96.3797 121.504C96.2583 121.944 96.2703 122.411 96.4141 122.845C96.5578 123.279 96.8269 123.661 97.1872 123.941C97.5476 124.222 97.983 124.389 98.4383 124.421C98.8937 124.454 99.3486 124.35 99.7454 124.123C100.142 123.897 100.463 123.558 100.668 123.149C100.872 122.74 100.951 122.279 100.894 121.825C100.837 121.372 100.647 120.945 100.348 120.6C99.9466 120.139 99.3794 119.856 98.7701 119.812C98.1607 119.769 97.5587 119.969 97.0956 120.368Z" fill="#01CDC5"/>
<path d="M86.4667 115.383C86.1212 115.682 85.8721 116.077 85.7508 116.518C85.6294 116.959 85.6414 117.426 85.7852 117.86C85.9289 118.294 86.198 118.675 86.5583 118.956C86.9187 119.236 87.3541 119.403 87.8094 119.436C88.2648 119.468 88.7197 119.365 89.1165 119.138C89.5133 118.912 89.8343 118.572 90.0387 118.163C90.2431 117.754 90.3219 117.294 90.2649 116.84C90.208 116.386 90.018 115.96 89.7189 115.615C89.3185 115.153 88.7511 114.868 88.1413 114.825C87.5315 114.782 86.9293 114.982 86.4667 115.383Z" fill="#01CDC5"/>
<path d="M77.8104 122.295C77.465 122.594 77.2158 122.989 77.0945 123.43C76.9732 123.871 76.9852 124.338 77.1289 124.772C77.2727 125.206 77.5417 125.587 77.9021 125.868C78.2624 126.148 78.6978 126.315 79.1532 126.348C79.6086 126.38 80.0634 126.276 80.4603 126.05C80.8571 125.823 81.178 125.484 81.3825 125.075C81.5869 124.666 81.6656 124.206 81.6087 123.752C81.5518 123.298 81.3617 122.872 81.0627 122.527C80.6615 122.065 80.0943 121.782 79.4849 121.739C78.8756 121.695 78.2736 121.895 77.8104 122.295Z" fill="#01CDC5"/>
<path d="M72.1362 133.027C72.4811 132.728 72.7295 132.332 72.85 131.891C72.9706 131.45 72.9578 130.983 72.8133 130.549C72.6688 130.116 72.3992 129.735 72.0384 129.455C71.6777 129.175 71.2421 129.009 70.7867 128.977C70.3313 128.945 69.8767 129.05 69.4802 129.277C69.0838 129.504 68.7634 129.843 68.5596 130.253C68.3557 130.662 68.2776 131.123 68.3351 131.576C68.3927 132.03 68.5832 132.456 68.8827 132.801C69.0809 133.03 69.3225 133.218 69.5935 133.353C69.8645 133.489 70.1595 133.569 70.4618 133.591C70.7641 133.612 71.0676 133.573 71.3549 133.476C71.6422 133.379 71.9078 133.227 72.1362 133.027Z" fill="#01CDC5"/>
<path d="M67.3798 117.304C67.0343 117.603 66.7852 117.998 66.6638 118.439C66.5425 118.88 66.5545 119.347 66.6983 119.781C66.842 120.215 67.1111 120.596 67.4714 120.877C67.8317 121.157 68.2671 121.324 68.7225 121.357C69.1779 121.389 69.6328 121.286 70.0296 121.059C70.4264 120.833 70.7474 120.493 70.9518 120.084C71.1562 119.675 71.2349 119.215 71.178 118.761C71.1211 118.308 70.9311 117.881 70.632 117.536C70.2315 117.074 69.6641 116.79 69.0544 116.746C68.4446 116.703 67.8424 116.903 67.3798 117.304Z" fill="#01CDC5"/>
<path d="M75.9266 110.203C75.5812 110.502 75.332 110.898 75.2107 111.339C75.0894 111.779 75.1014 112.246 75.2451 112.68C75.3889 113.114 75.6579 113.496 76.0183 113.776C76.3786 114.056 76.814 114.224 77.2694 114.256C77.7248 114.288 78.1797 114.185 78.5765 113.958C78.9733 113.732 79.2942 113.393 79.4987 112.984C79.7031 112.575 79.7818 112.114 79.7249 111.66C79.668 111.207 79.478 110.78 79.1789 110.435C78.7784 109.973 78.211 109.689 77.6013 109.645C76.9915 109.602 76.3892 109.802 75.9266 110.203Z" fill="#01CDC5"/>
<path d="M104.491 101.878C104.146 102.178 103.896 102.573 103.775 103.014C103.654 103.455 103.666 103.922 103.81 104.356C103.953 104.79 104.222 105.171 104.583 105.451C104.943 105.732 105.378 105.899 105.834 105.931C106.289 105.964 106.744 105.86 107.141 105.634C107.538 105.407 107.859 105.068 108.063 104.659C108.268 104.25 108.346 103.789 108.289 103.336C108.232 102.882 108.042 102.456 107.743 102.11C107.343 101.648 106.775 101.364 106.166 101.32C105.556 101.277 104.954 101.478 104.491 101.878Z" fill="#01CDC5"/>
<path d="M116.601 117.302C116.258 117.601 116.011 117.996 115.892 118.436C115.772 118.876 115.786 119.341 115.93 119.773C116.075 120.205 116.344 120.585 116.704 120.864C117.063 121.142 117.498 121.308 117.952 121.34C118.406 121.371 118.859 121.267 119.254 121.041C119.649 120.815 119.969 120.477 120.173 120.069C120.376 119.661 120.455 119.202 120.398 118.75C120.342 118.298 120.152 117.873 119.855 117.529C119.454 117.067 118.886 116.783 118.275 116.741C117.665 116.698 117.063 116.9 116.601 117.302Z" fill="#01CDC5"/>
<path d="M127.081 121.096C126.738 121.395 126.491 121.79 126.371 122.23C126.252 122.67 126.265 123.135 126.41 123.567C126.554 123.999 126.823 124.379 127.183 124.658C127.543 124.936 127.977 125.102 128.431 125.134C128.885 125.165 129.338 125.062 129.734 124.835C130.129 124.609 130.448 124.271 130.652 123.863C130.856 123.455 130.934 122.997 130.878 122.544C130.821 122.092 130.632 121.667 130.334 121.323C129.933 120.861 129.365 120.577 128.755 120.535C128.145 120.492 127.543 120.694 127.081 121.096Z" fill="#01CDC5"/>
<path d="M125.766 110.159C125.42 110.458 125.171 110.853 125.05 111.294C124.928 111.735 124.94 112.202 125.084 112.636C125.228 113.07 125.497 113.451 125.857 113.731C126.217 114.012 126.653 114.179 127.108 114.211C127.564 114.244 128.019 114.14 128.415 113.914C128.812 113.687 129.133 113.348 129.338 112.939C129.542 112.53 129.621 112.069 129.564 111.616C129.507 111.162 129.317 110.736 129.018 110.39C128.617 109.928 128.05 109.644 127.44 109.601C126.83 109.557 126.228 109.758 125.766 110.159Z" fill="#01CDC5"/>
<path d="M124.571 99.2907C124.226 99.5902 123.978 99.9854 123.857 100.426C123.736 100.867 123.748 101.334 123.892 101.767C124.036 102.201 124.305 102.582 124.665 102.862C125.025 103.142 125.46 103.309 125.915 103.342C126.37 103.374 126.825 103.271 127.222 103.045C127.618 102.819 127.939 102.48 128.144 102.071C128.349 101.663 128.428 101.203 128.372 100.749C128.316 100.296 128.126 99.8695 127.828 99.5239C127.63 99.2942 127.388 99.1059 127.117 98.9699C126.846 98.8338 126.551 98.7526 126.248 98.7309C125.946 98.7093 125.642 98.7476 125.354 98.8436C125.066 98.9397 124.8 99.0916 124.571 99.2907Z" fill="#01CDC5"/>
<path d="M123.561 88.4248C123.216 88.7241 122.967 89.1192 122.845 89.5602C122.724 90.0011 122.736 90.4681 122.88 90.902C123.024 91.3359 123.293 91.7172 123.653 91.9977C124.013 92.2782 124.449 92.4452 124.904 92.4777C125.36 92.5101 125.814 92.4066 126.211 92.1801C126.608 91.9536 126.929 91.6143 127.133 91.2053C127.338 90.7962 127.417 90.3357 127.36 89.882C127.303 89.4284 127.113 89.0019 126.814 88.6567C126.616 88.4272 126.375 88.2391 126.104 88.1032C125.833 87.9673 125.538 87.8863 125.236 87.8647C124.934 87.8432 124.631 87.8816 124.343 87.9777C124.056 88.0738 123.79 88.2258 123.561 88.4248Z" fill="#01CDC5"/>
<path d="M136.693 81.8648C136.394 81.5215 136.001 81.2746 135.562 81.1554C135.122 81.0362 134.658 81.0501 134.226 81.1952C133.795 81.3403 133.416 81.6102 133.137 81.9707C132.858 82.3313 132.693 82.7664 132.661 83.2211C132.629 83.6757 132.732 84.1296 132.957 84.5253C133.183 84.921 133.52 85.2409 133.927 85.4445C134.334 85.6481 134.792 85.7263 135.244 85.6692C135.695 85.6121 136.12 85.4223 136.464 85.1238C136.925 84.7215 137.209 84.1523 137.252 83.5413C137.295 82.9302 137.094 82.3272 136.693 81.8648Z" fill="#01CDC5"/>
<path d="M137.202 95.9117C137.547 95.6118 137.795 95.2163 137.915 94.7752C138.036 94.3341 138.023 93.8672 137.879 93.4336C137.734 93 137.465 92.6192 137.104 92.3393C136.743 92.0595 136.308 91.8931 135.852 91.8614C135.397 91.8296 134.942 91.9339 134.546 92.1609C134.149 92.388 133.829 92.7277 133.625 93.137C133.421 93.5463 133.343 94.0068 133.401 94.4603C133.458 94.9139 133.649 95.34 133.948 95.6848C134.146 95.9141 134.388 96.102 134.659 96.2375C134.93 96.3731 135.225 96.4538 135.527 96.4748C135.83 96.4959 136.133 96.457 136.42 96.3604C136.708 96.2638 136.973 96.1113 137.202 95.9117Z" fill="#01CDC5"/>
<path d="M135.298 103.093C134.954 103.393 134.705 103.788 134.585 104.229C134.464 104.67 134.477 105.137 134.621 105.571C134.766 106.004 135.035 106.385 135.396 106.665C135.757 106.945 136.193 107.111 136.648 107.143C137.103 107.175 137.558 107.07 137.954 106.843C138.351 106.616 138.671 106.277 138.875 105.867C139.079 105.458 139.157 104.998 139.1 104.544C139.042 104.09 138.851 103.664 138.552 103.32C138.354 103.09 138.112 102.902 137.841 102.767C137.57 102.631 137.275 102.551 136.973 102.53C136.671 102.508 136.367 102.547 136.08 102.644C135.792 102.741 135.527 102.893 135.298 103.093Z" fill="#01CDC5"/>
<path d="M136.357 113.934C136.012 114.234 135.764 114.63 135.643 115.071C135.523 115.512 135.536 115.979 135.68 116.413C135.824 116.846 136.094 117.227 136.455 117.507C136.816 117.787 137.251 117.953 137.707 117.985C138.162 118.017 138.617 117.912 139.013 117.685C139.409 117.458 139.73 117.118 139.934 116.709C140.138 116.3 140.216 115.839 140.158 115.386C140.101 114.932 139.91 114.506 139.611 114.161C139.209 113.699 138.641 113.416 138.031 113.373C137.421 113.331 136.819 113.533 136.357 113.934Z" fill="#01CDC5"/>
<path d="M146.243 106.324C145.898 106.623 145.648 107.018 145.527 107.459C145.406 107.9 145.418 108.367 145.562 108.801C145.705 109.235 145.974 109.616 146.335 109.897C146.695 110.177 147.13 110.344 147.586 110.377C148.041 110.409 148.496 110.306 148.893 110.079C149.29 109.853 149.611 109.513 149.815 109.104C150.019 108.695 150.098 108.235 150.041 107.781C149.984 107.327 149.794 106.901 149.495 106.556C149.297 106.326 149.056 106.138 148.785 106.002C148.515 105.866 148.22 105.785 147.918 105.764C147.616 105.742 147.312 105.781 147.025 105.877C146.737 105.973 146.472 106.125 146.243 106.324Z" fill="#01CDC5"/>
<path d="M148.256 96.214C147.957 95.8683 147.563 95.6191 147.123 95.498C146.683 95.3769 146.216 95.3893 145.783 95.5337C145.35 95.6781 144.969 95.9479 144.688 96.3091C144.408 96.6703 144.241 97.1065 144.208 97.5626C144.175 98.0188 144.278 98.4743 144.504 98.8715C144.73 99.2688 145.068 99.5899 145.476 99.7943C145.885 99.9986 146.344 100.077 146.797 100.02C147.25 99.9622 147.676 99.7715 148.021 99.4717C148.482 99.0694 148.765 98.501 148.809 97.8907C148.853 97.2803 148.654 96.6776 148.256 96.214Z" fill="#01CDC5"/>
<path d="M156.318 97.4949C155.973 97.7948 155.725 98.1903 155.604 98.6314C155.484 99.0725 155.496 99.5394 155.641 99.973C155.785 100.407 156.055 100.787 156.416 101.067C156.777 101.347 157.212 101.513 157.667 101.545C158.123 101.577 158.578 101.473 158.974 101.246C159.37 101.019 159.691 100.679 159.895 100.27C160.098 99.8603 160.177 99.3998 160.119 98.9462C160.062 98.4927 159.871 98.0666 159.572 97.7218C159.17 97.261 158.602 96.9785 157.992 96.936C157.382 96.8935 156.781 97.0944 156.318 97.4949Z" fill="#01CDC5"/>
<path d="M157.532 88.6956C157.233 88.3499 156.839 88.1007 156.399 87.9796C155.959 87.8585 155.493 87.8709 155.059 88.0153C154.626 88.1597 154.245 88.4295 153.965 88.7907C153.684 89.1518 153.517 89.5881 153.484 90.0442C153.451 90.5003 153.554 90.9558 153.78 91.3531C154.006 91.7503 154.344 92.0715 154.753 92.2758C155.161 92.4802 155.621 92.5586 156.074 92.5012C156.527 92.4438 156.953 92.2531 157.298 91.9532C157.759 91.5517 158.044 90.9831 158.088 90.3724C158.131 89.7616 157.932 89.1586 157.532 88.6956Z" fill="#01CDC5"/>
<path d="M186.12 70.2772C185.775 70.5765 185.525 70.9717 185.404 71.4126C185.283 71.8536 185.295 72.3205 185.438 72.7544C185.582 73.1883 185.851 73.5696 186.212 73.8501C186.572 74.1306 187.007 74.2976 187.463 74.3301C187.918 74.3626 188.373 74.259 188.77 74.0325C189.167 73.806 189.488 73.4667 189.692 73.0577C189.896 72.6486 189.975 72.1881 189.918 71.7344C189.861 71.2808 189.671 70.8543 189.372 70.5091C188.972 70.0468 188.404 69.7628 187.795 69.7193C187.185 69.6758 186.583 69.8765 186.12 70.2772Z" fill="#01CDC5"/>
<path d="M195.418 61.7841C195.072 62.0834 194.823 62.4785 194.702 62.9194C194.581 63.3604 194.593 63.8274 194.736 64.2613C194.88 64.6952 195.149 65.0765 195.509 65.3569C195.87 65.6374 196.305 65.8045 196.761 65.8369C197.216 65.8694 197.671 65.7658 198.068 65.5393C198.465 65.3128 198.785 64.9736 198.99 64.5645C199.194 64.1554 199.273 63.6949 199.216 63.2413C199.159 62.7876 198.969 62.3612 198.67 62.0159C198.472 61.7865 198.231 61.5984 197.96 61.4625C197.69 61.3266 197.395 61.2455 197.093 61.224C196.791 61.2025 196.487 61.2408 196.2 61.337C195.912 61.4331 195.647 61.585 195.418 61.7841Z" fill="#01CDC5"/>
<path d="M191.257 50.9052C190.916 51.2 190.669 51.5897 190.549 52.0249C190.429 52.46 190.44 52.921 190.582 53.3494C190.723 53.7779 190.988 54.1545 191.344 54.4317C191.699 54.7088 192.129 54.8739 192.579 54.9062C193.028 54.9384 193.477 54.8363 193.869 54.6127C194.261 54.3892 194.577 54.0543 194.779 53.6505C194.981 53.2466 195.058 52.792 195.002 52.3442C194.946 51.8964 194.758 51.4756 194.462 51.135C194.068 50.6799 193.509 50.4002 192.908 50.3571C192.307 50.314 191.714 50.5111 191.257 50.9052Z" fill="#01CDC5"/>
<path d="M165.071 52.2402C164.726 52.5395 164.477 52.9347 164.355 53.3756C164.234 53.8166 164.246 54.2835 164.39 54.7174C164.533 55.1513 164.802 55.5326 165.163 55.8131C165.523 56.0936 165.959 56.2606 166.414 56.2931C166.869 56.3256 167.324 56.222 167.721 55.9955C168.118 55.769 168.439 55.4298 168.643 55.0207C168.848 54.6116 168.926 54.1511 168.869 53.6975C168.813 53.2438 168.622 52.8173 168.323 52.4721C167.923 52.0098 167.356 51.7258 166.746 51.6823C166.136 51.6388 165.534 51.8395 165.071 52.2402Z" fill="#01CDC5"/>
<path d="M166.221 41.9903C165.878 42.2885 165.63 42.6821 165.509 43.1212C165.389 43.5603 165.401 44.0252 165.545 44.4571C165.688 44.889 165.956 45.2684 166.315 45.5474C166.674 45.8263 167.108 45.9922 167.561 46.0242C168.015 46.0561 168.468 45.9525 168.862 45.7266C169.257 45.5008 169.577 45.1627 169.78 44.7552C169.983 44.3477 170.061 43.8892 170.004 43.4375C169.946 42.9859 169.757 42.5615 169.459 42.2181C169.06 41.7585 168.495 41.4763 167.888 41.4336C167.281 41.3909 166.681 41.5911 166.221 41.9903Z" fill="#01CDC5"/>
<path d="M153.935 36.9554C153.598 37.2474 153.355 37.6328 153.237 38.0629C153.119 38.493 153.13 38.9484 153.271 39.3716C153.411 39.7948 153.673 40.1667 154.025 40.4403C154.376 40.7139 154.801 40.8769 155.245 40.9086C155.689 40.9404 156.133 40.8395 156.52 40.6187C156.907 40.3978 157.22 40.0671 157.42 39.6682C157.619 39.2693 157.696 38.8202 157.641 38.3777C157.585 37.9352 157.4 37.5191 157.109 37.1823C156.717 36.732 156.164 36.4555 155.569 36.413C154.974 36.3705 154.387 36.5655 153.935 36.9554Z" fill="#01CDC5"/>
<path d="M154.856 47.4354C154.511 47.7347 154.262 48.1298 154.14 48.5708C154.019 49.0118 154.031 49.4787 154.175 49.9126C154.319 50.3465 154.588 50.7278 154.948 51.0083C155.308 51.2888 155.744 51.4558 156.199 51.4883C156.654 51.5208 157.109 51.4172 157.506 51.1907C157.903 50.9642 158.224 50.6249 158.428 50.2159C158.633 49.8068 158.712 49.3463 158.655 48.8926C158.598 48.439 158.408 48.0125 158.109 47.6673C157.911 47.4378 157.669 47.2497 157.399 47.1138C157.128 46.9779 156.833 46.8969 156.531 46.8754C156.229 46.8538 155.926 46.8922 155.638 46.9883C155.351 47.0844 155.085 47.2364 154.856 47.4354Z" fill="#01CDC5"/>
<path d="M167.673 67.3652C168.068 66.9939 168.317 66.4935 168.376 65.9545L168.428 65.7606C168.453 65.2317 168.296 64.7102 167.982 64.2845C167.668 63.8588 167.217 63.5551 166.704 63.4247C166.192 63.2944 165.65 63.3455 165.171 63.5693C164.692 63.7932 164.304 64.176 164.074 64.653C163.844 65.13 163.786 65.6718 163.909 66.1867C164.032 66.7015 164.329 67.1577 164.75 67.478C165.171 67.7983 165.689 67.963 166.217 67.9442C166.746 67.9254 167.252 67.7242 167.649 67.3748L167.673 67.3652Z" fill="#01CDC5"/>
<path d="M154.685 58.2571C154.34 58.5564 154.091 58.9515 153.97 59.3925C153.848 59.8334 153.86 60.3004 154.004 60.7343C154.148 61.1682 154.417 61.5495 154.777 61.83C155.137 62.1105 155.573 62.2775 156.028 62.3099C156.484 62.3424 156.938 62.2389 157.335 62.0124C157.732 61.7859 158.053 61.4466 158.257 61.0375C158.462 60.6285 158.541 60.168 158.484 59.7143C158.427 59.2606 158.237 58.8342 157.938 58.489C157.537 58.0267 156.97 57.7426 156.36 57.6992C155.75 57.6557 155.148 57.8564 154.685 58.2571Z" fill="#01CDC5"/>
<path d="M144.029 64.6327C143.684 64.932 143.435 65.3271 143.313 65.7681C143.192 66.209 143.204 66.676 143.348 67.1099C143.491 67.5438 143.76 67.9251 144.121 68.2056C144.481 68.4861 144.917 68.6531 145.372 68.6856C145.827 68.718 146.282 68.6145 146.679 68.388C147.076 68.1615 147.397 67.8222 147.601 67.4131C147.806 67.0041 147.884 66.5436 147.827 66.0899C147.771 65.6362 147.58 65.2098 147.281 64.8646C147.084 64.6351 146.842 64.447 146.572 64.3111C146.301 64.1752 146.006 64.0942 145.704 64.0726C145.402 64.0511 145.098 64.0895 144.811 64.1856C144.524 64.2817 144.258 64.4336 144.029 64.6327Z" fill="#01CDC5"/>
<path d="M154.57 68.971C154.224 69.2701 153.975 69.6652 153.853 70.1064C153.731 70.5475 153.743 71.0148 153.886 71.4491C154.03 71.8833 154.299 72.265 154.66 72.5457C155.02 72.8264 155.456 72.9935 155.912 73.0258C156.367 73.0582 156.823 72.9543 157.219 72.7274C157.616 72.5005 157.937 72.1607 158.141 71.7511C158.345 71.3416 158.424 70.8806 158.366 70.4268C158.308 69.9729 158.118 69.5465 157.818 69.2016C157.417 68.741 156.851 68.4581 156.242 68.4149C155.634 68.3717 155.033 68.5717 154.57 68.971Z" fill="#01CDC5"/>
<path d="M155 79.1057C154.654 79.405 154.405 79.8001 154.284 80.2411C154.163 80.682 154.175 81.149 154.318 81.5829C154.462 82.0168 154.731 82.3981 155.092 82.6786C155.452 82.9591 155.887 83.1261 156.343 83.1586C156.798 83.1911 157.253 83.0875 157.65 82.861C158.047 82.6345 158.367 82.2952 158.572 81.8862C158.776 81.4771 158.855 81.0166 158.798 80.5629C158.741 80.1093 158.551 79.6828 158.252 79.3376C157.851 78.8765 157.284 78.5933 156.674 78.5499C156.065 78.5065 155.463 78.7063 155 79.1057Z" fill="#01CDC5"/>
<path d="M143.599 88.6933C143.898 89.0367 144.292 89.2835 144.731 89.4027C145.17 89.5219 145.635 89.5081 146.066 89.3629C146.498 89.2178 146.877 88.9479 147.156 88.5874C147.434 88.2268 147.6 87.7917 147.632 87.337C147.664 86.8824 147.561 86.4285 147.335 86.0328C147.11 85.6371 146.773 85.3172 146.366 85.1136C145.959 84.91 145.501 84.8319 145.049 84.8889C144.598 84.946 144.173 85.1358 143.829 85.4343C143.367 85.8366 143.084 86.4058 143.041 87.0169C142.998 87.6279 143.199 88.2309 143.599 88.6933Z" fill="#01CDC5"/>
<path d="M144.144 75.142C143.799 75.4413 143.55 75.8364 143.428 76.2773C143.307 76.7183 143.319 77.1853 143.463 77.6192C143.607 78.0531 143.876 78.4344 144.236 78.7148C144.596 78.9953 145.032 79.1624 145.487 79.1948C145.943 79.2273 146.397 79.1237 146.794 78.8972C147.191 78.6707 147.512 78.3315 147.716 77.9224C147.921 77.5133 148 77.0528 147.943 76.5992C147.886 76.1455 147.696 75.7191 147.397 75.3739C146.996 74.9116 146.429 74.6275 145.819 74.584C145.209 74.5406 144.607 74.7412 144.144 75.142Z" fill="#01CDC5"/>
<path d="M136.529 74.6363C136.872 74.3366 137.119 73.9419 137.238 73.502C137.358 73.0621 137.344 72.5967 137.2 72.1647C137.055 71.7326 136.786 71.3532 136.426 71.0745C136.067 70.7957 135.632 70.6301 135.178 70.5984C134.725 70.5667 134.271 70.6705 133.876 70.8966C133.481 71.1227 133.161 71.461 132.957 71.8688C132.754 72.2766 132.675 72.7355 132.732 73.1877C132.788 73.6399 132.978 74.065 133.275 74.4094C133.676 74.8714 134.244 75.1548 134.855 75.1973C135.465 75.2398 136.067 75.0381 136.529 74.6363Z" fill="#01CDC5"/>
<path d="M133.47 60.7162C133.127 61.0159 132.88 61.4107 132.761 61.8506C132.642 62.2905 132.655 62.7558 132.799 63.1879C132.944 63.6199 133.213 63.9993 133.573 64.2781C133.933 64.5568 134.367 64.7225 134.821 64.7541C135.275 64.7858 135.728 64.682 136.123 64.4559C136.518 64.2298 136.838 63.8915 137.042 63.4837C137.245 63.0759 137.324 62.617 137.267 62.1648C137.211 61.7126 137.022 61.2875 136.724 60.9431C136.323 60.4812 135.755 60.1978 135.145 60.1552C134.535 60.1127 133.932 60.3145 133.47 60.7162Z" fill="#01CDC5"/>
<path d="M133.446 50.3859C133.101 50.6858 132.853 51.0813 132.732 51.5224C132.612 51.9635 132.624 52.4304 132.769 52.864C132.913 53.2976 133.183 53.6784 133.544 53.9582C133.904 54.2381 134.34 54.4044 134.795 54.4362C135.251 54.4679 135.705 54.3637 136.102 54.1366C136.498 53.9096 136.819 53.5699 137.023 53.1606C137.226 52.7513 137.304 52.2908 137.247 51.8372C137.189 51.3837 136.999 50.9576 136.699 50.6128C136.501 50.3834 136.26 50.1956 135.989 50.06C135.718 49.9245 135.423 49.8438 135.12 49.8228C134.818 49.8017 134.515 49.8406 134.227 49.9372C133.94 50.0338 133.674 50.1863 133.446 50.3859Z" fill="#01CDC5"/>
<path d="M144.228 54.1812C143.883 54.4805 143.634 54.8756 143.512 55.3165C143.391 55.7575 143.403 56.2245 143.547 56.6584C143.691 57.0922 143.96 57.4736 144.32 57.754C144.68 58.0345 145.116 58.2016 145.571 58.234C146.027 58.2665 146.481 58.1629 146.878 57.9364C147.275 57.7099 147.596 57.3707 147.8 56.9616C148.005 56.5525 148.084 56.092 148.027 55.6384C147.97 55.1847 147.78 54.7583 147.481 54.413C147.08 53.9508 146.513 53.6667 145.903 53.6232C145.293 53.5798 144.691 53.7804 144.228 54.1812Z" fill="#01CDC5"/>
<path d="M143.793 43.794C143.448 44.0935 143.199 44.4886 143.078 44.9294C142.957 45.3702 142.97 45.8368 143.114 46.2704C143.258 46.7039 143.526 47.0849 143.887 47.3651C144.247 47.6454 144.682 47.8124 145.137 47.8449C145.592 47.8775 146.047 47.7742 146.443 47.5482C146.84 47.3221 147.161 46.9834 147.366 46.5748C147.57 46.1662 147.65 45.7061 147.593 45.2527C147.537 44.7992 147.348 44.3728 147.05 44.0272C146.649 43.5645 146.081 43.2801 145.47 43.2364C144.859 43.1926 144.256 43.3932 143.793 43.794Z" fill="#01CDC5"/>
<path d="M141.717 33.5699C141.374 33.8696 141.127 34.2643 141.008 34.7042C140.889 35.1441 140.902 35.6095 141.047 36.0415C141.191 36.4736 141.46 36.8529 141.82 37.1317C142.18 37.4105 142.614 37.5761 143.068 37.6078C143.522 37.6394 143.975 37.5357 144.37 37.3096C144.766 37.0834 145.085 36.7451 145.289 36.3374C145.492 35.9296 145.571 35.4706 145.514 35.0185C145.458 34.5663 145.269 34.1412 144.971 33.7968C144.57 33.3348 144.002 33.0514 143.392 33.0089C142.782 32.9663 142.179 33.1681 141.717 33.5699Z" fill="#01CDC5"/>
<path d="M132.328 40.1835C131.985 40.4832 131.738 40.8779 131.618 41.3179C131.499 41.7578 131.512 42.2231 131.657 42.6552C131.801 43.0872 132.07 43.4666 132.43 43.7453C132.79 44.0241 133.224 44.1898 133.678 44.2214C134.132 44.2531 134.585 44.1493 134.981 43.9232C135.376 43.6971 135.696 43.3588 135.899 42.951C136.103 42.5432 136.181 42.0843 136.125 41.6321C136.068 41.1799 135.879 40.7548 135.581 40.4104C135.18 39.9485 134.612 39.6651 134.002 39.6225C133.392 39.58 132.79 39.7818 132.328 40.1835Z" fill="#01CDC5"/>
<path d="M130.26 29.9133C129.916 30.2122 129.667 30.6065 129.547 31.0465C129.426 31.4864 129.438 31.9522 129.582 32.3849C129.726 32.8176 129.994 33.1978 130.354 33.4774C130.713 33.757 131.148 33.9235 131.602 33.9557C132.056 33.988 132.51 33.8846 132.906 33.6586C133.302 33.4326 133.622 33.0942 133.826 32.6862C134.03 32.2781 134.108 31.8188 134.051 31.3663C133.995 30.9138 133.805 30.4883 133.507 30.1439C133.107 29.682 132.541 29.3983 131.932 29.3551C131.323 29.3119 130.721 29.5127 130.26 29.9133Z" fill="#01CDC5"/>
<path d="M119.14 25.3296C118.795 25.6285 118.547 26.0228 118.427 26.4627C118.306 26.9027 118.318 27.3685 118.462 27.8012C118.606 28.2339 118.874 28.6141 119.234 28.8937C119.593 29.1733 120.028 29.3397 120.482 29.372C120.936 29.4042 121.39 29.3008 121.786 29.0748C122.181 28.8489 122.502 28.5105 122.706 28.1024C122.909 27.6944 122.988 27.2351 122.931 26.7825C122.875 26.33 122.685 25.9046 122.387 25.5601C121.987 25.0995 121.42 24.8167 120.812 24.7735C120.203 24.7303 119.602 24.9302 119.14 25.3296Z" fill="#01CDC5"/>
<path d="M124.172 39.3306C124.518 39.0314 124.767 38.6362 124.888 38.1953C125.009 37.7543 124.997 37.2874 124.854 36.8535C124.71 36.4196 124.441 36.0383 124.08 35.7578C123.72 35.4773 123.285 35.3102 122.829 35.2778C122.374 35.2453 121.919 35.3489 121.522 35.5754C121.125 35.8019 120.804 36.1412 120.6 36.5502C120.396 36.9593 120.317 37.4198 120.374 37.8735C120.431 38.3271 120.621 38.7535 120.92 39.0988C121.118 39.3283 121.359 39.5163 121.63 39.6522C121.9 39.7881 122.195 39.8692 122.497 39.8907C122.799 39.9123 123.103 39.8739 123.39 39.7778C123.678 39.6817 123.943 39.5297 124.172 39.3306Z" fill="#01CDC5"/>
<path d="M113.196 34.9241C113.541 34.6248 113.791 34.2297 113.912 33.7887C114.033 33.3478 114.021 32.8808 113.877 32.4469C113.734 32.0131 113.465 31.6317 113.104 31.3512C112.744 31.0708 112.309 30.9037 111.853 30.8713C111.398 30.8388 110.943 30.9424 110.546 31.1689C110.149 31.3954 109.828 31.7346 109.624 32.1437C109.42 32.5528 109.341 33.0133 109.398 33.4669C109.455 33.9206 109.645 34.347 109.944 34.6923C110.344 35.1545 110.912 35.4386 111.521 35.4821C112.131 35.5255 112.733 35.3249 113.196 34.9241Z" fill="#01CDC5"/>
<path d="M107.527 21.2373C107.182 21.5353 106.932 21.9293 106.81 22.3692C106.688 22.8092 106.699 23.2754 106.842 23.7088C106.985 24.1421 107.253 24.5232 107.612 24.8036C107.972 25.084 108.406 25.2513 108.861 25.2841C109.315 25.317 109.77 25.2139 110.166 24.9881C110.562 24.7622 110.883 24.4238 111.087 24.0155C111.291 23.6072 111.37 23.1475 111.313 22.6946C111.256 22.2417 111.067 21.816 110.768 21.4714C110.369 21.011 109.804 20.7278 109.196 20.6839C108.589 20.64 107.989 20.839 107.527 21.2373Z" fill="#01CDC5"/>
<path d="M104.534 38.0661C104.235 37.7215 103.84 37.4737 103.4 37.3538C102.96 37.234 102.494 37.2475 102.061 37.3927C101.629 37.5379 101.249 37.8083 100.969 38.1696C100.69 38.531 100.523 38.9671 100.491 39.4229C100.459 39.8787 100.562 40.3338 100.788 40.7305C101.014 41.1273 101.352 41.4479 101.76 41.652C102.168 41.8561 102.627 41.9344 103.08 41.8771C103.533 41.8198 103.958 41.6294 104.303 41.33C104.765 40.927 105.049 40.3571 105.092 39.7452C105.136 39.1333 104.935 38.5295 104.534 38.0661Z" fill="#01CDC5"/>
<path d="M104.311 47.632C104.013 47.2869 103.618 47.0383 103.178 46.9176C102.738 46.797 102.273 46.8097 101.84 46.9542C101.407 47.0987 101.026 47.3685 100.746 47.7294C100.466 48.0904 100.299 48.5263 100.266 48.9821C100.233 49.4379 100.335 49.8932 100.561 50.2903C100.786 50.6874 101.124 51.0087 101.532 51.2133C101.939 51.418 102.399 51.497 102.852 51.4402C103.304 51.3835 103.73 51.1936 104.076 50.8946C104.305 50.6958 104.493 50.4537 104.629 50.1821C104.765 49.9105 104.847 49.6147 104.869 49.3117C104.891 49.0086 104.853 48.7043 104.757 48.4161C104.661 48.1279 104.51 47.8615 104.311 47.632Z" fill="#01CDC5"/>
<path d="M104.568 57.9126C104.269 57.5675 103.875 57.319 103.434 57.1987C102.994 57.0784 102.528 57.0916 102.095 57.2367C101.662 57.3818 101.281 57.6523 101.001 58.0138C100.722 58.3754 100.555 58.8119 100.523 59.268C100.491 59.7241 100.595 60.1794 100.821 60.5763C101.047 60.9731 101.386 61.2937 101.795 61.4975C102.203 61.7013 102.663 61.7791 103.116 61.7211C103.569 61.663 103.994 61.4718 104.339 61.1715C104.568 60.9728 104.756 60.7306 104.891 60.4591C105.027 60.1876 105.108 59.8919 105.129 59.5892C105.15 59.2864 105.112 58.9825 105.016 58.6948C104.919 58.4071 104.767 58.1413 104.568 57.9126Z" fill="#01CDC5"/>
<path d="M115.393 62.9185C115.095 62.5728 114.701 62.3236 114.26 62.2025C113.82 62.0814 113.354 62.0938 112.921 62.2382C112.487 62.3826 112.106 62.6524 111.826 63.0136C111.546 63.3747 111.378 63.811 111.346 64.2671C111.313 64.7232 111.416 65.1787 111.642 65.576C111.867 65.9732 112.206 66.2944 112.614 66.4987C113.022 66.7031 113.482 66.7816 113.935 66.7241C114.388 66.6667 114.814 66.476 115.159 66.1761C115.621 65.7746 115.905 65.206 115.949 64.5953C115.993 63.9845 115.793 63.3815 115.393 62.9185Z" fill="#01CDC5"/>
<path d="M111.746 55.5455C112.045 55.8888 112.439 56.1357 112.878 56.2549C113.317 56.3741 113.781 56.3602 114.213 56.2151C114.644 56.07 115.023 55.8001 115.302 55.4395C115.581 55.079 115.747 54.6439 115.779 54.1892C115.811 53.7345 115.707 53.2807 115.482 52.885C115.257 52.4892 114.919 52.1694 114.512 51.9658C114.105 51.7622 113.647 51.684 113.196 51.7411C112.744 51.7982 112.319 51.988 111.975 52.2865C111.514 52.6888 111.23 53.258 111.187 53.869C111.144 54.4801 111.345 55.0831 111.746 55.5455Z" fill="#01CDC5"/>
<path d="M114.745 45.4818C115.091 45.1825 115.34 44.7874 115.461 44.3464C115.583 43.9054 115.571 43.4385 115.427 43.0046C115.283 42.5707 115.014 42.1894 114.654 41.9089C114.293 41.6284 113.858 41.4614 113.403 41.4289C112.947 41.3965 112.492 41.5 112.095 41.7265C111.699 41.953 111.378 42.2923 111.173 42.7013C110.969 43.1104 110.89 43.5709 110.947 44.0246C111.004 44.4782 111.194 44.9047 111.493 45.2499C111.691 45.4794 111.932 45.6675 112.203 45.8034C112.474 45.9393 112.768 46.0203 113.071 46.0418C113.373 46.0634 113.676 46.025 113.963 45.9289C114.251 45.8328 114.517 45.6808 114.745 45.4818Z" fill="#01CDC5"/>
<path d="M122.495 46.343C122.15 46.6429 121.901 47.0384 121.781 47.4795C121.66 47.9207 121.673 48.3875 121.818 48.8211C121.962 49.2547 122.232 49.6355 122.593 49.9154C122.953 50.1952 123.389 50.3616 123.844 50.3933C124.3 50.4251 124.754 50.3208 125.151 50.0938C125.547 49.8667 125.868 49.5271 126.071 49.1178C126.275 48.7085 126.353 48.2479 126.296 47.7944C126.238 47.3408 126.048 46.9147 125.748 46.5699C125.347 46.108 124.779 45.8246 124.169 45.782C123.559 45.7395 122.957 45.9413 122.495 46.343Z" fill="#01CDC5"/>
<path d="M125.776 60.1257C126.122 59.8264 126.371 59.4313 126.492 58.9903C126.613 58.5493 126.601 58.0824 126.458 57.6485C126.314 57.2146 126.045 56.8333 125.684 56.5528C125.324 56.2723 124.889 56.1053 124.433 56.0728C123.978 56.0403 123.523 56.1439 123.126 56.3704C122.729 56.5969 122.408 56.9362 122.204 57.3452C122 57.7543 121.921 58.2148 121.978 58.6685C122.035 59.1221 122.225 59.5486 122.524 59.8938C122.924 60.3561 123.492 60.6401 124.101 60.6836C124.711 60.7271 125.313 60.5264 125.776 60.1257Z" fill="#01CDC5"/>
<path d="M126.088 67.3029C125.789 66.9572 125.395 66.708 124.955 66.5869C124.515 66.4658 124.048 66.4782 123.615 66.6226C123.182 66.767 122.801 67.0368 122.52 67.398C122.24 67.7591 122.073 68.1954 122.04 68.6515C122.007 69.1076 122.11 69.5631 122.336 69.9604C122.562 70.3576 122.9 70.6788 123.308 70.8831C123.717 71.0875 124.176 71.166 124.629 71.1085C125.082 71.0511 125.508 70.8604 125.853 70.5605C126.315 70.159 126.599 69.5904 126.643 68.9797C126.687 68.3689 126.487 67.7659 126.088 67.3029Z" fill="#01CDC5"/>
<path d="M126.16 77.8327C125.861 77.4894 125.467 77.2425 125.028 77.1233C124.589 77.0041 124.125 77.018 123.693 77.1631C123.262 77.3082 122.883 77.5781 122.604 77.9386C122.325 78.2992 122.159 78.7343 122.127 79.189C122.095 79.6436 122.199 80.0975 122.424 80.4932C122.649 80.8889 122.987 81.2088 123.394 81.4124C123.801 81.616 124.259 81.6941 124.71 81.6371C125.162 81.58 125.587 81.3902 125.931 81.0917C126.392 80.6894 126.676 80.1202 126.719 79.5091C126.762 78.8981 126.561 78.2951 126.16 77.8327Z" fill="#01CDC5"/>
<path d="M112.334 73.2858C111.988 73.5851 111.739 73.9802 111.618 74.4211C111.497 74.8621 111.509 75.3291 111.652 75.763C111.796 76.1969 112.065 76.5782 112.426 76.8586C112.786 77.1391 113.221 77.3062 113.677 77.3386C114.132 77.3711 114.587 77.2675 114.984 77.041C115.381 76.8145 115.701 76.4753 115.906 76.0662C116.11 75.6571 116.189 75.1966 116.132 74.743C116.075 74.2893 115.885 73.8629 115.586 73.5176C115.185 73.0566 114.618 72.7734 114.008 72.73C113.399 72.6865 112.797 72.8863 112.334 73.2858Z" fill="#01CDC5"/>
<path d="M112.93 84.1425C112.587 84.4422 112.34 84.8369 112.221 85.2768C112.102 85.7167 112.115 86.1821 112.259 86.6142C112.404 87.0462 112.673 87.4256 113.033 87.7043C113.393 87.9831 113.827 88.1488 114.281 88.1804C114.735 88.2121 115.188 88.1083 115.583 87.8822C115.978 87.6561 116.298 87.3178 116.502 86.91C116.705 86.5022 116.784 86.0433 116.727 85.5911C116.671 85.1389 116.482 84.7138 116.184 84.3694C115.783 83.9074 115.215 83.6241 114.605 83.5815C113.995 83.539 113.392 83.7407 112.93 84.1425Z" fill="#01CDC5"/>
<path d="M113.883 95.0787C113.539 95.3786 113.29 95.7741 113.17 96.2153C113.049 96.6564 113.062 97.1233 113.206 97.5568C113.351 97.9904 113.62 98.3712 113.981 98.6511C114.342 98.931 114.778 99.0973 115.233 99.1291C115.688 99.1608 116.143 99.0566 116.539 98.8295C116.936 98.6025 117.256 98.2628 117.46 97.8535C117.664 97.4442 117.742 96.9836 117.684 96.5301C117.627 96.0766 117.436 95.6505 117.137 95.3056C116.736 94.8437 116.168 94.5603 115.558 94.5177C114.948 94.4752 114.345 94.677 113.883 95.0787Z" fill="#01CDC5"/>
<path d="M115.061 106.15C114.718 106.449 114.471 106.844 114.352 107.284C114.232 107.724 114.246 108.189 114.39 108.621C114.535 109.053 114.804 109.433 115.164 109.712C115.523 109.99 115.958 110.156 116.412 110.188C116.865 110.219 117.319 110.115 117.714 109.889C118.109 109.663 118.429 109.325 118.633 108.917C118.836 108.509 118.915 108.05 118.858 107.598C118.802 107.146 118.612 106.721 118.315 106.377C118.117 106.147 117.875 105.958 117.604 105.822C117.333 105.686 117.038 105.606 116.736 105.584C116.433 105.563 116.13 105.602 115.842 105.699C115.555 105.796 115.289 105.949 115.061 106.15Z" fill="#01CDC5"/>
<path d="M103.223 90.6075C102.88 90.9072 102.633 91.3019 102.514 91.7418C102.395 92.1817 102.408 92.6471 102.552 93.0791C102.697 93.5112 102.966 93.8905 103.326 94.1693C103.686 94.4481 104.12 94.6137 104.574 94.6454C105.028 94.677 105.481 94.5733 105.876 94.3471C106.271 94.121 106.591 93.7827 106.795 93.375C106.998 92.9672 107.077 92.5082 107.02 92.0561C106.964 91.6039 106.775 91.1787 106.477 90.8344C106.076 90.3724 105.508 90.089 104.898 90.0465C104.287 90.0039 103.685 90.2057 103.223 90.6075Z" fill="#01CDC5"/>
<path d="M102.387 79.452C102.042 79.7519 101.794 80.1474 101.673 80.5885C101.553 81.0297 101.566 81.4965 101.71 81.9301C101.855 82.3637 102.124 82.7445 102.485 83.0244C102.846 83.3043 103.281 83.4706 103.737 83.5023C104.192 83.5341 104.647 83.4299 105.043 83.2028C105.44 82.9757 105.76 82.6361 105.964 82.2268C106.168 81.8175 106.246 81.3569 106.188 80.9034C106.131 80.4499 105.94 80.0237 105.641 79.6789C105.443 79.4496 105.201 79.2618 104.93 79.1262C104.659 78.9906 104.364 78.91 104.062 78.8889C103.759 78.8678 103.456 78.9067 103.169 79.0034C102.881 79.1 102.616 79.2525 102.387 79.452Z" fill="#01CDC5"/>
<path d="M104.745 71.8865C105.088 71.5868 105.335 71.192 105.454 70.7521C105.573 70.3122 105.56 69.8469 105.416 69.4148C105.271 68.9828 105.002 68.6034 104.642 68.3246C104.282 68.0459 103.848 67.8802 103.394 67.8486C102.94 67.8169 102.487 67.9207 102.092 68.1468C101.697 68.3729 101.377 68.7112 101.173 69.119C100.97 69.5268 100.891 69.9857 100.948 70.4379C101.004 70.8901 101.193 71.3152 101.491 71.6596C101.689 71.8895 101.93 72.0779 102.201 72.2138C102.472 72.3498 102.768 72.4306 103.07 72.4517C103.373 72.4728 103.676 72.4337 103.964 72.3367C104.251 72.2397 104.517 72.0867 104.745 71.8865Z" fill="#01CDC5"/>
<path d="M94.4901 62.7432C94.191 62.398 93.7964 62.1496 93.3561 62.0293C92.9158 61.909 92.4496 61.9222 92.0166 62.0673C91.5835 62.2124 91.2031 62.4828 90.9233 62.8444C90.6436 63.206 90.4771 63.6424 90.445 64.0986C90.4129 64.5547 90.5165 65.01 90.7429 65.4068C90.9692 65.8037 91.3081 66.1243 91.7165 66.3281C92.125 66.5318 92.5847 66.6096 93.0376 66.5516C93.4905 66.4936 93.9161 66.3024 94.2606 66.0021C94.7222 65.5999 95.0057 65.0307 95.0487 64.4196C95.0917 63.8085 94.8908 63.2056 94.4901 62.7432Z" fill="#01CDC5"/>
<path d="M84.2849 57.2903C83.9864 56.9446 83.5922 56.6954 83.152 56.5743C82.7119 56.4532 82.2456 56.4656 81.8123 56.61C81.379 56.7544 80.998 57.0242 80.7176 57.3854C80.4373 57.7465 80.2701 58.1828 80.2372 58.6389C80.2044 59.0951 80.3074 59.5506 80.5332 59.9478C80.759 60.3451 81.0974 60.6662 81.5056 60.8706C81.9139 61.0749 82.3736 61.1534 82.8266 61.0959C83.2796 61.0385 83.7055 60.8478 84.0504 60.5479C84.2798 60.3495 84.4678 60.1078 84.6037 59.8365C84.7396 59.5653 84.8208 59.2699 84.8426 58.9673C84.8644 58.6646 84.8263 58.3608 84.7306 58.073C84.6349 57.7852 84.4835 57.5193 84.2849 57.2903Z" fill="#01CDC5"/>
<path d="M70.5574 55.0938C70.8559 55.4395 71.2502 55.6887 71.6903 55.8098C72.1305 55.9309 72.5967 55.9185 73.0301 55.7741C73.4634 55.6297 73.8444 55.3599 74.1247 54.9987C74.4051 54.6376 74.5723 54.2013 74.6051 53.7452C74.6379 53.2891 74.5349 52.8336 74.3092 52.4363C74.0834 52.0391 73.745 51.7179 73.3367 51.5135C72.9285 51.3092 72.4688 51.2307 72.0158 51.2882C71.5628 51.3456 71.1369 51.5363 70.7919 51.8362C70.33 52.2377 70.0459 52.8062 70.0019 53.417C69.9579 54.0278 70.1577 54.6308 70.5574 55.0938Z" fill="#01CDC5"/>
<path d="M80.3778 48.3024C80.6763 48.6481 81.0705 48.8973 81.5107 49.0184C81.9508 49.1395 82.417 49.1271 82.8504 48.9827C83.2837 48.8383 83.6647 48.5685 83.945 48.2073C84.2254 47.8462 84.3926 47.4099 84.4254 46.9538C84.4583 46.4977 84.3553 46.0422 84.1295 45.6449C83.9037 45.2477 83.5653 44.9265 83.157 44.7222C82.7488 44.5178 82.2891 44.4393 81.8361 44.4968C81.3831 44.5542 80.9572 44.7449 80.6122 45.0448C80.1503 45.4463 79.8662 46.0149 79.8222 46.6256C79.7783 47.2364 79.9781 47.8394 80.3778 48.3024Z" fill="#01CDC5"/>
<path d="M93.7935 54.0661C94.1366 53.7664 94.3834 53.3717 94.5028 52.9318C94.6222 52.4919 94.6088 52.0265 94.4643 51.5945C94.3198 51.1624 94.0507 50.7831 93.691 50.5043C93.3312 50.2255 92.897 50.0599 92.4431 50.0282C91.9892 49.9966 91.5359 50.1003 91.1406 50.3265C90.7453 50.5526 90.4257 50.8909 90.222 51.2986C90.0184 51.7064 89.9399 52.1654 89.9965 52.6175C90.0531 53.0697 90.2422 53.4948 90.5399 53.8392C90.9411 54.3012 91.5091 54.5846 92.1192 54.6271C92.7293 54.6697 93.3315 54.4679 93.7935 54.0661Z" fill="#01CDC5"/>
<path d="M90.0905 41.5403C90.3896 41.8855 90.7843 42.1339 91.2246 42.2542C91.6649 42.3745 92.1311 42.3613 92.5641 42.2162C92.9971 42.0711 93.3776 41.8007 93.6573 41.4391C93.9371 41.0775 94.1035 40.6411 94.1357 40.1849C94.1678 39.7288 94.0641 39.2735 93.8378 38.8767C93.6115 38.4798 93.2726 38.1592 92.8642 37.9554C92.4557 37.7517 91.9959 37.6739 91.5431 37.7319C91.0902 37.7899 90.6646 37.9811 90.32 38.2814C89.8597 38.6844 89.5771 39.2534 89.5341 39.8641C89.4911 40.4747 89.6911 41.0774 90.0905 41.5403Z" fill="#01CDC5"/>
<path d="M90.6236 29.3448C90.9667 29.0451 91.2135 28.6504 91.3329 28.2105C91.4523 27.7706 91.4389 27.3052 91.2944 26.8732C91.1499 26.4411 90.8808 26.0618 90.5211 25.783C90.1613 25.5042 89.7271 25.3386 89.2732 25.3069C88.8192 25.2752 88.366 25.379 87.9707 25.6051C87.5754 25.8313 87.2557 26.1696 87.0521 26.5773C86.8485 26.9851 86.77 27.444 86.8266 27.8962C86.8831 28.3484 87.0722 28.7735 87.37 29.1179C87.7712 29.5799 88.3392 29.8633 88.9493 29.9058C89.5593 29.9483 90.1615 29.7466 90.6236 29.3448Z" fill="#01CDC5"/>
<path d="M101.351 31.9367C101.696 31.6368 101.944 31.2413 102.065 30.8002C102.185 30.3591 102.173 29.8922 102.028 29.4586C101.884 29.025 101.614 28.6442 101.253 28.3644C100.893 28.0845 100.457 27.9182 100.002 27.8864C99.5462 27.8547 99.0915 27.9589 98.6951 28.186C98.2986 28.413 97.9782 28.7527 97.7744 29.162C97.5706 29.5713 97.4925 30.0318 97.55 30.4854C97.6075 30.9389 97.7981 31.365 98.0975 31.7098C98.2958 31.9392 98.5373 32.127 98.8083 32.2626C99.0793 32.3981 99.3744 32.4788 99.6766 32.4999C99.9789 32.5209 100.282 32.482 100.57 32.3854C100.857 32.2888 101.123 32.1363 101.351 31.9367Z" fill="#01CDC5"/>
<path d="M96.1398 17.989C95.7955 18.2879 95.5473 18.6822 95.4267 19.1222C95.306 19.5621 95.3183 20.0279 95.4619 20.4606C95.6056 20.8933 95.8742 21.2735 96.2338 21.5531C96.5933 21.8327 97.0277 21.9992 97.4819 22.0314C97.9362 22.0637 98.3899 21.9603 98.7857 21.7343C99.1815 21.5083 99.5016 21.1699 99.7055 20.7619C99.9094 20.3538 99.988 19.8945 99.9313 19.442C99.8747 18.9894 99.6852 18.564 99.387 18.2195C98.9865 17.7589 98.4201 17.4761 97.8115 17.4329C97.203 17.3897 96.6019 17.5897 96.1398 17.989Z" fill="#01CDC5"/>
<path d="M85.2348 14.0968C84.8916 14.3952 84.6444 14.7888 84.5244 15.2277C84.4044 15.6667 84.417 16.1312 84.5606 16.5628C84.7042 16.9943 84.9723 17.3734 85.3311 17.6521C85.6899 17.9308 86.1232 18.0967 86.5763 18.1287C87.0294 18.1608 87.4819 18.0575 87.8767 17.832C88.2715 17.6066 88.5907 17.269 88.7942 16.862C88.9976 16.455 89.0761 15.9969 89.0196 15.5455C88.9632 15.0941 88.7744 14.6697 88.4771 14.326C88.2799 14.0969 88.0394 13.9093 87.7694 13.7737C87.4995 13.6382 87.2054 13.5574 86.9041 13.5361C86.6028 13.5148 86.3002 13.5534 86.0137 13.6496C85.7272 13.7458 85.4625 13.8978 85.2348 14.0968Z" fill="#01CDC5"/>
<path d="M80.0046 21.127C79.7061 20.7813 79.3119 20.5321 78.8717 20.411C78.4316 20.2899 77.9653 20.3023 77.532 20.4467C77.0987 20.5911 76.7177 20.8609 76.4374 21.2221C76.157 21.5832 75.9898 22.0195 75.957 22.4756C75.9241 22.9317 76.0271 23.3872 76.2529 23.7845C76.4787 24.1817 76.8171 24.5029 77.2253 24.7072C77.6336 24.9116 78.0933 24.9901 78.5463 24.9326C78.9993 24.8752 79.4252 24.6845 79.7702 24.3846C80.2309 23.9823 80.5141 23.414 80.5581 22.8036C80.602 22.1933 80.403 21.5905 80.0046 21.127Z" fill="#01CDC5"/>
<path d="M71.8923 28.371C71.5938 28.0253 71.1996 27.7761 70.7594 27.655C70.3193 27.5339 69.853 27.5463 69.4197 27.6907C68.9864 27.8351 68.6054 28.1049 68.325 28.4661C68.0447 28.8272 67.8775 29.2635 67.8447 29.7196C67.8118 30.1757 67.9148 30.6313 68.1406 31.0285C68.3664 31.4258 68.7048 31.7469 69.113 31.9513C69.5213 32.1556 69.981 32.2341 70.434 32.1766C70.887 32.1192 71.3129 31.9285 71.6579 31.6286C72.1186 31.2264 72.4018 30.658 72.4458 30.0476C72.4897 29.4373 72.2907 28.8345 71.8923 28.371Z" fill="#01CDC5"/>
<path d="M64.7644 19.2715C65.0629 19.6173 65.4572 19.8665 65.8973 19.9876C66.3375 20.1087 66.8037 20.0962 67.2371 19.9519C67.6704 19.8075 68.0514 19.5376 68.3317 19.1765C68.6121 18.8153 68.7793 18.3791 68.8121 17.9229C68.8449 17.4668 68.7419 17.0113 68.5162 16.6141C68.2904 16.2168 67.952 15.8957 67.5437 15.6913C67.1355 15.4869 66.6758 15.4085 66.2228 15.4659C65.7698 15.5233 65.3439 15.7141 64.9989 16.0139C64.7696 16.2124 64.5816 16.4541 64.4457 16.7254C64.3097 16.9966 64.2286 17.292 64.2068 17.5946C64.185 17.8972 64.223 18.2011 64.3187 18.4889C64.4144 18.7766 64.5659 19.0426 64.7644 19.2715Z" fill="#01CDC5"/>
<path d="M73.3214 9.4762C72.9771 9.77507 72.7289 10.1694 72.6083 10.6093C72.4876 11.0493 72.4999 11.5151 72.6436 11.9478C72.7873 12.3805 73.0558 12.7607 73.4154 13.0403C73.775 13.3199 74.2093 13.4863 74.6636 13.5186C75.1178 13.5508 75.5715 13.4474 75.9673 13.2215C76.3631 12.9955 76.6832 12.6571 76.8871 12.249C77.0911 11.841 77.1697 11.3817 77.113 10.9292C77.0563 10.4766 76.8669 10.0512 76.5687 9.70673C76.1689 9.24491 75.6023 8.96119 74.9933 8.91796C74.3844 8.87473 73.783 9.07553 73.3214 9.4762Z" fill="#01CDC5"/>
<path d="M59.9686 5.83986C59.6232 6.13914 59.374 6.53427 59.2527 6.97522C59.1314 7.41618 59.1434 7.88315 59.2871 8.31704C59.4309 8.75094 59.6999 9.13224 60.0603 9.41272C60.4206 9.69321 60.856 9.86025 61.3114 9.89272C61.7668 9.92518 62.2216 9.82161 62.6185 9.59511C63.0153 9.36861 63.3362 9.02936 63.5407 8.62029C63.7451 8.21122 63.8238 7.75072 63.7669 7.29706C63.71 6.8434 63.5199 6.41697 63.2209 6.07173C62.8204 5.60945 62.253 5.32538 61.6433 5.28191C61.0335 5.23844 60.4312 5.43911 59.9686 5.83986Z" fill="#01CDC5"/>
<path d="M47.7848 1.89306C47.4399 2.19295 47.1915 2.58848 47.071 3.02959C46.9504 3.4707 46.9632 3.93758 47.1077 4.37117C47.2522 4.80476 47.5218 5.18558 47.8826 5.46544C48.2433 5.7453 48.6789 5.91163 49.1343 5.94338C49.5897 5.97514 50.0443 5.8709 50.4408 5.64384C50.8372 5.41678 51.1576 5.07711 51.3614 4.66781C51.5653 4.2585 51.6434 3.79795 51.5858 3.34443C51.5283 2.8909 51.3378 2.46478 51.0383 2.11996C50.6371 1.658 50.0691 1.37462 49.459 1.33208C48.849 1.28953 48.2468 1.4913 47.7848 1.89306Z" fill="#01CDC5"/>
<path d="M53.5576 17.5956C53.9025 17.2957 54.1509 16.9002 54.2714 16.4591C54.3919 16.018 54.3791 15.5511 54.2347 15.1175C54.0902 14.6839 53.8205 14.3031 53.4598 14.0233C53.099 13.7434 52.6634 13.5771 52.2081 13.5453C51.7527 13.5136 51.298 13.6178 50.9016 13.8449C50.5051 14.0719 50.1847 14.4116 49.9809 14.8209C49.7771 15.2302 49.699 15.6907 49.7565 16.1443C49.814 16.5978 50.0046 17.0239 50.304 17.3687C50.7052 17.8307 51.2732 18.1141 51.8833 18.1566C52.4934 18.1992 53.0956 17.9974 53.5576 17.5956Z" fill="#01CDC5"/>
<path d="M42.5309 24.2399C42.8764 23.9406 43.1255 23.5455 43.2469 23.1046C43.3682 22.6636 43.3562 22.1966 43.2125 21.7627C43.0687 21.3288 42.7996 20.9475 42.4393 20.6671C42.079 20.3866 41.6436 20.2195 41.1882 20.1871C40.7328 20.1546 40.2779 20.2582 39.8811 20.4847C39.4843 20.7112 39.1633 21.0504 38.9589 21.4595C38.7545 21.8686 38.6758 22.3291 38.7327 22.7827C38.7896 23.2364 38.9796 23.6628 39.2787 24.0081C39.6792 24.4703 40.2466 24.7544 40.8563 24.7979C41.4661 24.8413 42.0684 24.6407 42.5309 24.2399Z" fill="#01CDC5"/>
<path d="M43.2544 37.4437C43.5975 37.144 43.8444 36.7493 43.9638 36.3094C44.0832 35.8694 44.0698 35.4041 43.9253 34.972C43.7808 34.54 43.5117 34.1606 43.1519 33.8819C42.7922 33.6031 42.3579 33.4374 41.904 33.4058C41.4501 33.3741 40.9969 33.4779 40.6016 33.704C40.2063 33.9301 39.8866 34.2684 39.683 34.6762C39.4793 35.084 39.4009 35.5429 39.4574 35.9951C39.514 36.4473 39.7031 36.8724 40.0008 37.2168C40.402 37.6788 40.9701 37.9621 41.5801 38.0047C42.1902 38.0472 42.7924 37.8454 43.2544 37.4437Z" fill="#01CDC5"/>
<path d="M51.9141 30.9966C52.2619 30.6998 52.514 30.3062 52.6385 29.8659C52.763 29.4256 52.7542 28.9583 52.6134 28.5233C52.4725 28.0882 52.2058 27.7049 51.8471 27.4219C51.4884 27.139 51.0539 26.9691 50.5985 26.9338C50.1431 26.8984 49.6873 26.9993 49.289 27.2236C48.8906 27.4478 48.5676 27.7854 48.3608 28.1935C48.154 28.6017 48.0727 29.062 48.1272 29.5162C48.1817 29.9703 48.3697 30.398 48.6671 30.7449C48.8636 30.975 49.1034 31.1641 49.373 31.3013C49.6425 31.4385 49.9364 31.5212 50.2379 31.5445C50.5394 31.5679 50.8426 31.5316 51.1302 31.4376C51.4178 31.3436 51.6842 31.1937 51.9141 30.9966Z" fill="#01CDC5"/>
<path d="M57.8961 26.4809C58.1952 26.8261 58.5899 27.0745 59.0302 27.1948C59.4705 27.3151 59.9367 27.3019 60.3697 27.1568C60.8027 27.0117 61.1832 26.7413 61.4629 26.3797C61.7427 26.0181 61.9091 25.5817 61.9413 25.1256C61.9734 24.6694 61.8697 24.2141 61.6434 23.8173C61.4171 23.4204 61.0782 23.0998 60.6698 22.896C60.2613 22.6923 59.8015 22.6145 59.3487 22.6725C58.8958 22.7305 58.4702 22.9217 58.1256 23.222C57.8965 23.4208 57.7087 23.6629 57.5731 23.9344C57.4375 24.206 57.3568 24.5016 57.3354 24.8044C57.3141 25.1071 57.3527 25.4111 57.4489 25.6988C57.5451 25.9865 57.6971 26.2523 57.8961 26.4809Z" fill="#01CDC5"/>
<path d="M62.3425 38.1399C62.6879 37.8406 62.9371 37.4455 63.0584 37.0046C63.1797 36.5636 63.1677 36.0966 63.024 35.6627C62.8802 35.2289 62.6112 34.8475 62.2508 34.5671C61.8905 34.2866 61.4551 34.1195 60.9997 34.0871C60.5443 34.0546 60.0895 34.1582 59.6926 34.3847C59.2958 34.6112 58.9749 34.9504 58.7704 35.3595C58.566 35.7686 58.4873 36.2291 58.5442 36.6827C58.6011 37.1364 58.7912 37.5628 59.0902 37.9081C59.4907 38.3704 60.0581 38.6544 60.6678 38.6979C61.2776 38.7414 61.8799 38.5407 62.3425 38.1399Z" fill="#01CDC5"/>
<path d="M82.4231 36.7409C82.7685 36.4416 83.0177 36.0465 83.139 35.6056C83.2603 35.1646 83.2483 34.6976 83.1046 34.2637C82.9608 33.8298 82.6918 33.4485 82.3314 33.1681C81.9711 32.8876 81.5357 32.7205 81.0803 32.6881C80.6249 32.6556 80.17 32.7592 79.7732 32.9857C79.3764 33.2122 79.0555 33.5514 78.851 33.9605C78.6466 34.3696 78.5679 34.8301 78.6248 35.2837C78.6817 35.7374 78.8717 36.1638 79.1708 36.5091C79.3687 36.7386 79.6099 36.9266 79.8806 37.0625C80.1513 37.1984 80.4462 37.2795 80.7483 37.301C81.0504 37.3225 81.3538 37.2841 81.6412 37.188C81.9286 37.0919 82.1943 36.94 82.4231 36.7409Z" fill="#01CDC5"/>
<path d="M73.0532 43.4561C73.3981 43.1563 73.6465 42.7607 73.767 42.3196C73.8875 41.8785 73.8748 41.4116 73.7303 40.978C73.5858 40.5444 73.3162 40.1636 72.9554 39.8838C72.5947 39.6039 72.1591 39.4376 71.7037 39.4058C71.2483 39.3741 70.7937 39.4783 70.3972 39.7054C70.0008 39.9324 69.6804 40.2721 69.4765 40.6814C69.2727 41.0907 69.1946 41.5513 69.2521 42.0048C69.3097 42.4583 69.5002 42.8844 69.7997 43.2292C69.9979 43.4586 70.2395 43.6464 70.5105 43.782C70.7814 43.9175 71.0765 43.9982 71.3788 44.0193C71.6811 44.0403 71.9846 44.0015 72.2719 43.9048C72.5592 43.8082 72.8248 43.6557 73.0532 43.4561Z" fill="#01CDC5"/>
<path d="M63.4514 49.9653C63.7968 49.666 64.046 49.2709 64.1673 48.8299C64.2886 48.389 64.2766 47.922 64.1329 47.4881C63.9891 47.0542 63.7201 46.6729 63.3597 46.3924C62.9994 46.1119 62.564 45.9449 62.1086 45.9124C61.6532 45.88 61.1984 45.9835 60.8015 46.21C60.4047 46.4365 60.0838 46.7758 59.8794 47.1848C59.6749 47.5939 59.5962 48.0544 59.6531 48.5081C59.71 48.9617 59.9001 49.3882 60.1991 49.7334C60.397 49.9629 60.6383 50.151 60.9089 50.2869C61.1796 50.4228 61.4745 50.5038 61.7766 50.5254C62.0787 50.5469 62.3822 50.5085 62.6695 50.4124C62.9569 50.3163 63.2226 50.1644 63.4514 49.9653Z" fill="#01CDC5"/>
<path d="M53.021 43.8021C53.3659 43.5022 53.6143 43.1067 53.7348 42.6656C53.8553 42.2245 53.8425 41.7576 53.6981 41.324C53.5536 40.8904 53.2839 40.5096 52.9232 40.2297C52.5625 39.9499 52.1268 39.7835 51.6715 39.7518C51.2161 39.72 50.7614 39.8243 50.365 40.0513C49.9686 40.2784 49.6482 40.618 49.4443 41.0273C49.2405 41.4367 49.1624 41.8972 49.2199 42.3507C49.2774 42.8043 49.468 43.2304 49.7674 43.5752C49.9657 43.8045 50.2073 43.9924 50.4782 44.1279C50.7492 44.2635 51.0443 44.3441 51.3466 44.3652C51.6488 44.3863 51.9523 44.3474 52.2397 44.2508C52.527 44.1541 52.7925 44.0017 53.021 43.8021Z" fill="#01CDC5"/>
<path d="M44.3068 50.7889C44.6498 50.4887 44.8966 50.0936 45.0161 49.6534C45.1356 49.2132 45.1224 48.7476 44.9782 48.3151C44.834 47.8827 44.5652 47.5027 44.2058 47.2231C43.8463 46.9435 43.4122 46.7768 42.958 46.7439C42.5039 46.711 42.0501 46.8134 41.6537 47.0382C41.2573 47.263 40.9361 47.6002 40.7305 48.0073C40.5249 48.4144 40.444 48.8732 40.4982 49.326C40.5523 49.7787 40.739 50.2052 41.0347 50.5517C41.2325 50.7845 41.4745 50.9756 41.7468 51.1137C42.019 51.2519 42.3161 51.3344 42.6206 51.3565C42.9251 51.3785 43.2309 51.3397 43.5204 51.2423C43.8099 51.1449 44.0772 50.9907 44.3068 50.7889Z" fill="#01CDC5"/>
<path d="M35.8313 58.2979C36.1007 58.0658 36.2953 57.7587 36.3904 57.4158C36.4855 57.0729 36.4768 56.7095 36.3653 56.3717C36.2539 56.0339 36.0449 55.7369 35.7646 55.5185C35.4844 55.3 35.1456 55.1699 34.7913 55.1446C34.4369 55.1193 34.083 55.2 33.7743 55.3765C33.4656 55.5529 33.2161 55.8171 33.0574 56.1356C32.8987 56.4541 32.838 56.8126 32.883 57.1655C32.9279 57.5184 33.0765 57.85 33.3099 58.118C33.621 58.4753 34.0607 58.6948 34.5331 58.7285C35.0054 58.7622 35.4721 58.6074 35.8313 58.2979Z" fill="#01CDC5"/>
<path d="M44.6869 63.469C45.0318 63.1694 45.2803 62.7743 45.4012 62.3336C45.522 61.8928 45.5097 61.4262 45.3659 60.9926C45.222 60.5591 44.953 60.1781 44.5929 59.8979C44.2328 59.6176 43.7977 59.4506 43.3426 59.418C42.8876 59.3855 42.433 59.4887 42.0363 59.7148C41.6395 59.9409 41.3185 60.2796 41.1138 60.6882C40.9091 61.0968 40.8298 61.5569 40.886 62.0103C40.9423 62.4638 41.1315 62.8902 41.4297 63.2358C41.8309 63.6985 42.399 63.9829 43.0096 64.0266C43.6201 64.0703 44.2233 63.8698 44.6869 63.469Z" fill="#01CDC5"/>
<path d="M54.0852 56.4096C54.4306 56.1103 54.6798 55.7152 54.8011 55.2743C54.9224 54.8333 54.9104 54.3663 54.7667 53.9324C54.6229 53.4986 54.3539 53.1172 53.9935 52.8368C53.6332 52.5563 53.1978 52.3892 52.7424 52.3568C52.287 52.3243 51.8322 52.4279 51.4353 52.6544C51.0385 52.8809 50.7176 53.2201 50.5131 53.6292C50.3087 54.0383 50.23 54.4988 50.2869 54.9524C50.3438 55.4061 50.5339 55.8325 50.8329 56.1778C51.0308 56.4073 51.272 56.5953 51.5427 56.7312C51.8134 56.8671 52.1083 56.9482 52.4104 56.9697C52.7125 56.9912 53.0159 56.9528 53.3033 56.8567C53.5907 56.7606 53.8564 56.6087 54.0852 56.4096Z" fill="#01CDC5"/>
<path d="M41.8368 74.0843C42.1777 73.7888 42.4234 73.3987 42.5429 72.9634C42.6625 72.5282 42.6504 72.0673 42.5082 71.6391C42.366 71.211 42.1001 70.8348 41.7442 70.5583C41.3883 70.2818 40.9584 70.1174 40.5089 70.0858C40.0594 70.0543 39.6105 70.1571 39.2191 70.3812C38.8278 70.6053 38.5115 70.9406 38.3104 71.3447C38.1093 71.7488 38.0323 72.2034 38.0893 72.6511C38.1463 73.0988 38.3347 73.5193 38.6305 73.8595C39.0261 74.3142 39.5857 74.5933 40.1866 74.6354C40.7876 74.6776 41.381 74.4794 41.8368 74.0843Z" fill="#01CDC5"/>
<path d="M43.4061 83.8957C43.3794 83.8565 43.399 83.8032 43.361 83.7663C43.1855 83.5448 42.9669 83.3613 42.7186 83.2267C42.4702 83.0922 42.1972 83.0094 41.9159 82.9835C41.6346 82.9575 41.351 82.9889 41.0821 83.0757C40.8132 83.1625 40.5645 83.303 40.3512 83.4886C40.1378 83.6743 39.9642 83.9012 39.8408 84.1558C39.7173 84.4104 39.6466 84.6873 39.6329 84.9699C39.6192 85.2525 39.6628 85.5349 39.761 85.8001C39.8592 86.0653 40.0101 86.3077 40.2045 86.5128C40.5172 86.852 40.9371 87.0727 41.3936 87.1377C41.8501 87.2027 42.3151 87.1081 42.7103 86.8698L43.4061 83.8957Z" fill="#01CDC5"/>
<path d="M63.9709 62.0644C64.3164 61.7651 64.5655 61.37 64.6868 60.929C64.8082 60.4881 64.7962 60.0211 64.6524 59.5872C64.5087 59.1533 64.2396 58.772 63.8793 58.4915C63.5189 58.2111 63.0835 58.044 62.6282 58.0115C62.1728 57.9791 61.7179 58.0827 61.3211 58.3092C60.9242 58.5357 60.6033 58.8749 60.3989 59.284C60.1945 59.693 60.1157 60.1535 60.1727 60.6072C60.2296 61.0609 60.4196 61.4873 60.7187 61.8325C60.9166 62.062 61.1578 62.2501 61.4285 62.386C61.6992 62.5219 61.994 62.6029 62.2961 62.6245C62.5982 62.646 62.9017 62.6076 63.1891 62.5115C63.4765 62.4154 63.7422 62.2635 63.9709 62.0644Z" fill="#01CDC5"/>
<path d="M74.4287 63.9926C74.1298 63.6493 73.736 63.4024 73.2969 63.2832C72.8578 63.164 72.3931 63.1779 71.9616 63.323C71.5301 63.4681 71.1511 63.738 70.8725 64.0986C70.5938 64.4591 70.428 64.8942 70.396 65.3489C70.364 65.8036 70.4672 66.2574 70.6926 66.6531C70.918 67.0489 71.2554 67.3687 71.6624 67.5723C72.0693 67.7759 72.5275 67.8541 72.979 67.797C73.4305 67.7399 73.8551 67.5501 74.1992 67.2516C74.6608 66.8493 74.9443 66.2801 74.9873 65.6691C75.0303 65.058 74.8294 64.455 74.4287 63.9926Z" fill="#01CDC5"/>
<path d="M84.7354 69.0887C84.4365 68.7453 84.0426 68.4985 83.6035 68.3793C83.1644 68.2601 82.6998 68.2739 82.2683 68.419C81.8368 68.5642 81.4578 68.834 81.1791 69.1946C80.9004 69.5552 80.7346 69.9903 80.7026 70.445C80.6706 70.8996 80.7738 71.3535 80.9992 71.7492C81.2246 72.1449 81.5621 72.4648 81.969 72.6684C82.3759 72.8719 82.8341 72.9501 83.2856 72.8931C83.7371 72.836 84.1618 72.6462 84.5059 72.3476C84.9675 71.9454 85.2509 71.3762 85.2939 70.7651C85.337 70.1541 85.1361 69.5511 84.7354 69.0887Z" fill="#01CDC5"/>
<path d="M85.3416 80.6673C85.0431 80.3215 84.6488 80.0724 84.2087 79.9513C83.7685 79.8302 83.3023 79.8426 82.8689 79.987C82.4356 80.1313 82.0546 80.4012 81.7743 80.7623C81.4939 81.1235 81.3267 81.5598 81.2939 82.0159C81.2611 82.472 81.3641 82.9275 81.5898 83.3248C81.8156 83.722 82.154 84.0431 82.5623 84.2475C82.9705 84.4519 83.4302 84.5303 83.8832 84.4729C84.3362 84.4155 84.7621 84.2248 85.1071 83.9249C85.5678 83.5226 85.851 82.9543 85.895 82.3439C85.9389 81.7336 85.74 81.1308 85.3416 80.6673Z" fill="#01CDC5"/>
<path d="M95.1026 74.3768C94.8037 74.0334 94.4098 73.7866 93.9707 73.6674C93.5316 73.5482 93.0669 73.562 92.6354 73.7071C92.204 73.8522 91.8249 74.1221 91.5463 74.4827C91.2676 74.8433 91.1018 75.2784 91.0698 75.733C91.0378 76.1877 91.141 76.6416 91.3664 77.0373C91.5918 77.433 91.9293 77.7529 92.3362 77.9564C92.7431 78.16 93.2013 78.2382 93.6528 78.1811C94.1043 78.1241 94.5289 77.9343 94.8731 77.6357C95.3346 77.2335 95.6181 76.6643 95.6611 76.0532C95.7042 75.4422 95.5033 74.8392 95.1026 74.3768Z" fill="#01CDC5"/>
<path d="M92.6864 85.5775C92.3409 85.8768 92.0918 86.2719 91.9705 86.7129C91.8492 87.1539 91.8611 87.6208 92.0049 88.0547C92.1486 88.4886 92.4177 88.8699 92.778 89.1504C93.1384 89.4309 93.5738 89.5979 94.0292 89.6304C94.4845 89.6629 94.9394 89.5593 95.3362 89.3328C95.7331 89.1063 96.054 88.767 96.2584 88.358C96.4629 87.9489 96.5416 87.4884 96.4847 87.0347C96.4277 86.5811 96.2377 86.1546 95.9387 85.8094C95.5382 85.3471 94.9708 85.0631 94.361 85.0196C93.7513 84.9761 93.149 85.1768 92.6864 85.5775Z" fill="#01CDC5"/>
<path d="M73.9664 98.4001C73.6233 98.6998 73.3765 99.0945 73.2571 99.5344C73.1377 99.9743 73.1511 100.44 73.2956 100.872C73.4401 101.304 73.7092 101.683 74.0689 101.962C74.4287 102.241 74.8629 102.406 75.3168 102.438C75.7707 102.47 76.224 102.366 76.6193 102.14C77.0146 101.914 77.3342 101.575 77.5379 101.168C77.7415 100.76 77.82 100.301 77.7634 99.8487C77.7068 99.3965 77.5177 98.9713 77.22 98.627C76.8188 98.165 76.2508 97.8816 75.6407 97.8391C75.0306 97.7965 74.4284 97.9983 73.9664 98.4001Z" fill="#01CDC5"/>
<path d="M74.7615 75.5781C74.463 75.2323 74.0687 74.9831 73.6286 74.862C73.1884 74.7409 72.7222 74.7533 72.2888 74.8977C71.8555 75.0421 71.4746 75.3119 71.1942 75.6731C70.9138 76.0343 70.7466 76.4705 70.7138 76.9266C70.681 77.3828 70.784 77.8383 71.0097 78.2355C71.2355 78.6328 71.5739 78.9539 71.9822 79.1583C72.3904 79.3627 72.8501 79.4411 73.3031 79.3837C73.7561 79.3262 74.182 79.1355 74.527 78.8357C74.7563 78.6372 74.9443 78.3955 75.0802 78.1242C75.2162 77.853 75.2974 77.5576 75.3191 77.255C75.3409 76.9524 75.3029 76.6485 75.2072 76.3607C75.1115 76.073 74.96 75.807 74.7615 75.5781Z" fill="#01CDC5"/>
<path d="M62.9315 93.322C62.5861 93.6213 62.3369 94.0164 62.2156 94.4574C62.0943 94.8984 62.1063 95.3653 62.25 95.7992C62.3938 96.2331 62.6628 96.6144 63.0232 96.8949C63.3835 97.1754 63.8189 97.3424 64.2743 97.3749C64.7297 97.4074 65.1845 97.3038 65.5814 97.0773C65.9782 96.8508 66.2991 96.5115 66.5035 96.1025C66.708 95.6934 66.7867 95.2329 66.7298 94.7792C66.6729 94.3256 66.4828 93.8991 66.1838 93.5539C65.7833 93.0916 65.2159 92.8076 64.6062 92.7641C63.9964 92.7206 63.3941 92.9213 62.9315 93.322Z" fill="#01CDC5"/>
<path d="M65.1356 105.169C64.7902 105.468 64.541 105.863 64.4197 106.304C64.2984 106.745 64.3104 107.212 64.4541 107.646C64.5979 108.08 64.8669 108.461 65.2273 108.742C65.5876 109.022 66.023 109.189 66.4784 109.222C66.9338 109.254 67.3886 109.151 67.7855 108.924C68.1823 108.698 68.5032 108.359 68.7076 107.95C68.9121 107.54 68.9908 107.08 68.9339 106.626C68.877 106.173 68.6869 105.746 68.3879 105.401C67.9874 104.939 67.42 104.655 66.8102 104.611C66.2005 104.568 65.5982 104.768 65.1356 105.169Z" fill="#01CDC5"/>
<path d="M59.7219 116.142C60.0673 115.843 60.3165 115.448 60.4378 115.007C60.5591 114.566 60.5472 114.099 60.4034 113.665C60.2596 113.231 59.9906 112.85 59.6302 112.569C59.2699 112.289 58.8345 112.122 58.3791 112.089C57.9238 112.057 57.4689 112.16 57.072 112.387C56.6752 112.613 56.3543 112.953 56.1499 113.362C55.9454 113.771 55.8667 114.231 55.9236 114.685C55.9806 115.139 56.1706 115.565 56.4696 115.91C56.6676 116.14 56.9088 116.328 57.1795 116.464C57.4501 116.6 57.745 116.681 58.0471 116.702C58.3492 116.724 58.6527 116.685 58.9401 116.589C59.2274 116.493 59.4931 116.341 59.7219 116.142Z" fill="#01CDC5"/>
<path d="M54.1168 100.506C53.7719 100.806 53.5235 101.201 53.403 101.642C53.2825 102.083 53.2953 102.55 53.4397 102.984C53.5842 103.418 53.8539 103.798 54.2146 104.078C54.5753 104.358 55.0109 104.524 55.4663 104.556C55.9217 104.588 56.3764 104.484 56.7728 104.257C57.1692 104.03 57.4896 103.69 57.6935 103.281C57.8973 102.871 57.9754 102.411 57.9179 101.957C57.8604 101.504 57.6698 101.078 57.3704 100.733C57.1721 100.503 56.9305 100.316 56.6596 100.18C56.3886 100.044 56.0935 99.9638 55.7912 99.9427C55.489 99.9217 55.1854 99.9605 54.8981 100.057C54.6108 100.154 54.3453 100.306 54.1168 100.506Z" fill="#01CDC5"/>
<path d="M51.1217 123.895C51.4637 123.598 51.7102 123.207 51.8302 122.77C51.9501 122.333 51.938 121.87 51.7954 121.44C51.6528 121.011 51.3862 120.633 51.0291 120.355C50.6721 120.077 50.2407 119.912 49.7896 119.88C49.3384 119.847 48.8878 119.95 48.4946 120.174C48.1014 120.398 47.7833 120.734 47.5806 121.14C47.3778 121.545 47.2995 122.001 47.3556 122.45C47.4117 122.9 47.5996 123.323 47.8956 123.665C48.0921 123.892 48.3315 124.078 48.6 124.213C48.8684 124.348 49.1608 124.428 49.4604 124.449C49.76 124.471 50.0609 124.433 50.3459 124.338C50.631 124.243 50.8946 124.092 51.1217 123.895Z" fill="#01CDC5"/>
<path d="M61.7941 128.401C62.1396 128.102 62.3888 127.707 62.5101 127.266C62.6314 126.825 62.6194 126.358 62.4757 125.924C62.3319 125.49 62.0628 125.109 61.7025 124.829C61.3422 124.548 60.9068 124.381 60.4514 124.349C59.996 124.316 59.5411 124.42 59.1443 124.646C58.7475 124.873 58.4266 125.212 58.2221 125.621C58.0177 126.03 57.939 126.491 57.9959 126.944C58.0528 127.398 58.2428 127.824 58.5419 128.17C58.7398 128.399 58.981 128.587 59.2517 128.723C59.5224 128.859 59.8173 128.94 60.1194 128.962C60.4215 128.983 60.7249 128.945 61.0123 128.849C61.2997 128.752 61.5654 128.601 61.7941 128.401Z" fill="#01CDC5"/>
<path d="M164.603 75.6084C164.193 76.0232 163.955 76.5779 163.936 77.1612C163.917 77.7445 164.119 78.3132 164.501 78.753C164.884 79.1928 165.419 79.4713 165.998 79.5325C166.577 79.5937 167.159 79.4331 167.625 79.0829C168.023 78.7142 168.274 78.2135 168.332 77.6736L168.384 77.4796C168.415 77.0257 168.311 76.573 168.085 76.1788C167.858 75.7846 167.52 75.4669 167.113 75.2658C166.705 75.0647 166.247 74.9894 165.797 75.0495C165.347 75.1095 164.924 75.3022 164.583 75.6031L164.603 75.6084Z" fill="#01CDC5"/>
<path d="M166.711 88.2293C166.462 88.422 166.255 88.6637 166.103 88.9395C165.95 89.2153 165.855 89.5193 165.824 89.8329C165.794 90.1465 165.827 90.4631 165.923 90.7632C166.018 91.0633 166.175 91.3406 166.381 91.5779C166.588 91.8153 166.841 92.0078 167.125 92.1436C167.409 92.2794 167.717 92.3556 168.032 92.3675C168.346 92.3794 168.659 92.3268 168.953 92.2129C169.246 92.099 169.514 91.9262 169.738 91.7052C170.134 91.335 170.384 90.834 170.441 90.2945L170.492 90.1006C170.523 89.6466 170.419 89.1939 170.193 88.7997C169.966 88.4056 169.628 88.0878 169.221 87.8867C168.813 87.6856 168.355 87.6103 167.905 87.6704C167.455 87.7304 167.032 87.9231 166.691 88.224L166.711 88.2293Z" fill="#01CDC5"/>
<path d="M176.66 78.839C176.25 79.2538 176.011 79.8085 175.992 80.3918C175.973 80.9751 176.175 81.5438 176.558 81.9836C176.941 82.4234 177.475 82.7019 178.055 82.7631C178.634 82.8243 179.215 82.6637 179.682 82.3135C180.08 81.9448 180.331 81.4441 180.389 80.9042L180.441 80.7102C180.472 80.2563 180.368 79.8036 180.141 79.4094C179.915 79.0152 179.576 78.6974 179.169 78.4964C178.762 78.2953 178.304 78.22 177.854 78.2801C177.403 78.3401 176.981 78.5328 176.64 78.8337L176.66 78.839Z" fill="#01CDC5"/>
<path d="M175.702 65.8924C175.453 66.0851 175.246 66.3268 175.094 66.6026C174.941 66.8783 174.847 67.1824 174.816 67.496C174.785 67.8096 174.818 68.1262 174.914 68.4263C175.01 68.7264 175.166 69.0037 175.372 69.241C175.579 69.4784 175.832 69.6709 176.116 69.8067C176.4 69.9425 176.708 70.0186 177.023 70.0306C177.337 70.0425 177.651 69.9899 177.944 69.876C178.238 69.7621 178.505 69.5893 178.729 69.3683C179.125 68.9981 179.375 68.4971 179.432 67.9576L179.484 67.7637C179.515 67.3097 179.41 66.857 179.184 66.4628C178.957 66.0686 178.619 65.7509 178.212 65.5498C177.805 65.3487 177.347 65.2734 176.896 65.3335C176.446 65.3935 176.024 65.5862 175.683 65.8871L175.702 65.8924Z" fill="#01CDC5"/>
<path d="M175.517 55.3646C175.098 55.7778 174.851 56.3358 174.829 56.9245C174.806 57.5132 175.008 58.0881 175.395 58.5319C175.781 58.9757 176.322 59.2548 176.908 59.3121C177.493 59.3695 178.078 59.2008 178.544 58.8405C178.94 58.4697 179.189 57.9691 179.247 57.4298L179.299 57.2358C179.32 56.9382 179.283 56.6393 179.189 56.3563C179.095 56.0732 178.946 55.8115 178.751 55.5861C178.35 55.1309 177.785 54.8524 177.18 54.8109C176.575 54.7694 175.978 54.9683 175.517 55.3646Z" fill="#01CDC5"/>
<path d="M177.329 47.0345C177.032 47.2715 176.798 47.578 176.647 47.9272C176.497 48.2763 176.434 48.6571 176.466 49.036C176.497 49.4148 176.622 49.7799 176.828 50.099C177.034 50.4181 177.315 50.6812 177.647 50.8651C177.979 51.049 178.352 51.1479 178.731 51.1532C179.111 51.1585 179.486 51.0699 179.823 50.8953C180.161 50.7207 180.45 50.4655 180.665 50.1523C180.881 49.8391 181.016 49.4776 181.058 49.0997L181.11 48.9058C181.14 48.4526 181.034 48.0011 180.808 47.608C180.581 47.2148 180.244 46.8977 179.837 46.6965C179.431 46.4954 178.975 46.4192 178.525 46.4775C178.075 46.5358 177.653 46.726 177.311 47.0242L177.329 47.0345Z" fill="#01CDC5"/>
<path d="M185.603 58.0671C185.184 58.4803 184.937 59.0383 184.915 59.627C184.892 60.2157 185.094 60.7907 185.481 61.2344C185.867 61.6782 186.408 61.9573 186.994 62.0146C187.579 62.072 188.164 61.9033 188.63 61.543C189.026 61.1723 189.275 60.6716 189.333 60.1323L189.385 59.9384C189.406 59.6407 189.369 59.3418 189.275 59.0588C189.181 58.7757 189.032 58.514 188.837 58.2887C188.436 57.8334 187.871 57.5549 187.266 57.5134C186.661 57.4719 186.064 57.6709 185.603 58.0671Z" fill="#01CDC5"/>
</g>
<defs>
<clipPath id="clip0_68_26">
<rect width="176.411" height="165.827" fill="white" transform="translate(-1 170.4) rotate(-75)"/>
</clipPath>
</defs>
</svg>
